<mxfile host="app.diagrams.net" modified="2023-07-20T10:31:29.363Z" agent="Mozilla/5.0 (Windows NT 10.0; Win64; x64) AppleWebKit/537.36 (KHTML, like Gecko) Chrome/113.0.0.0 Safari/537.36 OPR/99.0.0.0" etag="nns0qPvVhjB64ZpSknBe" version="21.6.1" type="github">
  <diagram name="Страница 1" id="xXnSN60IRPTXpCH7mL83">
    <mxGraphModel dx="2761" dy="632" grid="1" gridSize="10" guides="1" tooltips="1" connect="1" arrows="1" fold="1" page="0" pageScale="1" pageWidth="827" pageHeight="1169" math="0" shadow="0">
      <root>
        <mxCell id="0" />
        <mxCell id="1" parent="0" />
        <mxCell id="gbdaSumpZfYu16GzujYo-1" value="" style="rounded=0;whiteSpace=wrap;html=1;fillColor=#cce5ff;strokeColor=#36393d;" vertex="1" parent="1">
          <mxGeometry x="-190" y="20" width="1160" height="690" as="geometry" />
        </mxCell>
        <mxCell id="gbdaSumpZfYu16GzujYo-3" value="&lt;h1&gt;Parse Houses&lt;/h1&gt;&lt;p&gt;DB, API, WEB-SERVER and other tools.&lt;/p&gt;" style="text;html=1;strokeColor=none;fillColor=none;spacing=5;spacingTop=-20;whiteSpace=wrap;overflow=hidden;rounded=0;" vertex="1" parent="1">
          <mxGeometry x="295" y="20" width="190" height="120" as="geometry" />
        </mxCell>
        <mxCell id="gbdaSumpZfYu16GzujYo-5" value="" style="rounded=0;whiteSpace=wrap;html=1;fillColor=#cce5ff;strokeColor=#36393d;" vertex="1" parent="1">
          <mxGeometry x="-1530" y="20" width="1160" height="690" as="geometry" />
        </mxCell>
        <mxCell id="gbdaSumpZfYu16GzujYo-6" value="" style="endArrow=none;html=1;rounded=0;entryX=0;entryY=0.5;entryDx=0;entryDy=0;exitX=1;exitY=0.5;exitDx=0;exitDy=0;" edge="1" parent="1" source="gbdaSumpZfYu16GzujYo-5" target="gbdaSumpZfYu16GzujYo-1">
          <mxGeometry width="50" height="50" relative="1" as="geometry">
            <mxPoint x="-630" y="430" as="sourcePoint" />
            <mxPoint x="-580" y="380" as="targetPoint" />
          </mxGeometry>
        </mxCell>
        <mxCell id="gbdaSumpZfYu16GzujYo-8" value="&lt;h1&gt;DB&lt;/h1&gt;&lt;p&gt;ClickHouse, ElasticSearch&lt;/p&gt;" style="text;html=1;strokeColor=none;fillColor=none;spacing=5;spacingTop=-20;whiteSpace=wrap;overflow=hidden;rounded=0;" vertex="1" parent="1">
          <mxGeometry x="-1045" y="20" width="190" height="120" as="geometry" />
        </mxCell>
        <mxCell id="gbdaSumpZfYu16GzujYo-9" value="announcement" style="swimlane;fontStyle=0;childLayout=stackLayout;horizontal=1;startSize=26;horizontalStack=0;resizeParent=1;resizeParentMax=0;resizeLast=0;collapsible=1;marginBottom=0;align=center;fontSize=14;" vertex="1" parent="1">
          <mxGeometry x="-1510" y="100" width="160" height="116" as="geometry" />
        </mxCell>
        <mxCell id="gbdaSumpZfYu16GzujYo-10" value="id" style="text;strokeColor=none;fillColor=none;spacingLeft=4;spacingRight=4;overflow=hidden;rotatable=0;points=[[0,0.5],[1,0.5]];portConstraint=eastwest;fontSize=12;whiteSpace=wrap;html=1;" vertex="1" parent="gbdaSumpZfYu16GzujYo-9">
          <mxGeometry y="26" width="160" height="30" as="geometry" />
        </mxCell>
        <mxCell id="gbdaSumpZfYu16GzujYo-11" value="name" style="text;strokeColor=none;fillColor=none;spacingLeft=4;spacingRight=4;overflow=hidden;rotatable=0;points=[[0,0.5],[1,0.5]];portConstraint=eastwest;fontSize=12;whiteSpace=wrap;html=1;" vertex="1" parent="gbdaSumpZfYu16GzujYo-9">
          <mxGeometry y="56" width="160" height="30" as="geometry" />
        </mxCell>
        <mxCell id="gbdaSumpZfYu16GzujYo-12" value="description" style="text;strokeColor=none;fillColor=none;spacingLeft=4;spacingRight=4;overflow=hidden;rotatable=0;points=[[0,0.5],[1,0.5]];portConstraint=eastwest;fontSize=12;whiteSpace=wrap;html=1;" vertex="1" parent="gbdaSumpZfYu16GzujYo-9">
          <mxGeometry y="86" width="160" height="30" as="geometry" />
        </mxCell>
        <mxCell id="gbdaSumpZfYu16GzujYo-13" value="add-info" style="swimlane;fontStyle=0;childLayout=stackLayout;horizontal=1;startSize=26;horizontalStack=0;resizeParent=1;resizeParentMax=0;resizeLast=0;collapsible=1;marginBottom=0;align=center;fontSize=14;" vertex="1" parent="1">
          <mxGeometry x="-1300" y="100" width="160" height="116" as="geometry" />
        </mxCell>
        <mxCell id="gbdaSumpZfYu16GzujYo-14" value="id" style="text;strokeColor=none;fillColor=none;spacingLeft=4;spacingRight=4;overflow=hidden;rotatable=0;points=[[0,0.5],[1,0.5]];portConstraint=eastwest;fontSize=12;whiteSpace=wrap;html=1;" vertex="1" parent="gbdaSumpZfYu16GzujYo-13">
          <mxGeometry y="26" width="160" height="30" as="geometry" />
        </mxCell>
        <mxCell id="gbdaSumpZfYu16GzujYo-15" value="add-info" style="text;strokeColor=none;fillColor=none;spacingLeft=4;spacingRight=4;overflow=hidden;rotatable=0;points=[[0,0.5],[1,0.5]];portConstraint=eastwest;fontSize=12;whiteSpace=wrap;html=1;" vertex="1" parent="gbdaSumpZfYu16GzujYo-13">
          <mxGeometry y="56" width="160" height="30" as="geometry" />
        </mxCell>
        <mxCell id="gbdaSumpZfYu16GzujYo-16" value="announcement-id" style="text;strokeColor=none;fillColor=none;spacingLeft=4;spacingRight=4;overflow=hidden;rotatable=0;points=[[0,0.5],[1,0.5]];portConstraint=eastwest;fontSize=12;whiteSpace=wrap;html=1;" vertex="1" parent="gbdaSumpZfYu16GzujYo-13">
          <mxGeometry y="86" width="160" height="30" as="geometry" />
        </mxCell>
        <mxCell id="gbdaSumpZfYu16GzujYo-17" value="" style="edgeStyle=entityRelationEdgeStyle;fontSize=12;html=1;endArrow=ERmandOne;startArrow=ERmandOne;rounded=0;exitX=1;exitY=0.5;exitDx=0;exitDy=0;entryX=0;entryY=0.5;entryDx=0;entryDy=0;" edge="1" parent="1" source="gbdaSumpZfYu16GzujYo-10" target="gbdaSumpZfYu16GzujYo-16">
          <mxGeometry width="100" height="100" relative="1" as="geometry">
            <mxPoint x="-1210" y="330" as="sourcePoint" />
            <mxPoint x="-1110" y="230" as="targetPoint" />
          </mxGeometry>
        </mxCell>
        <mxCell id="gbdaSumpZfYu16GzujYo-18" value="&lt;h1&gt;Structure&lt;/h1&gt;" style="text;html=1;strokeColor=none;fillColor=none;spacing=5;spacingTop=-20;whiteSpace=wrap;overflow=hidden;rounded=0;" vertex="1" parent="1">
          <mxGeometry x="320" y="100" width="115" height="40" as="geometry" />
        </mxCell>
      </root>
    </mxGraphModel>
  </diagram>
</mxfile>
